<svg xmlns="http://www.w3.org/2000/svg" viewBox="0 0 64 64" width="64" height="64">
  <defs>
    <filter id="glow"><feGaussianBlur stdDeviation="1.5" result="blur"/><feMerge><feMergeNode in="blur"/><feMergeNode in="SourceGraphic"/></feMerge></filter>
  </defs>
  <g filter="url(#glow)">
    <!-- Center hexagon -->
    <polygon points="32,24 39,28 39,36 32,40 25,36 25,28" fill="none" stroke="#AAFF00" stroke-width="2" stroke-linejoin="round"/>
    <!-- Top -->
    <polygon points="32,10 39,14 39,22 32,26 25,22 25,14" fill="none" stroke="#AAFF00" stroke-width="2" stroke-linejoin="round"/>
    <!-- Top-right -->
    <polygon points="45,17 52,21 52,29 45,33 38,29 38,21" fill="none" stroke="#AAFF00" stroke-width="2" stroke-linejoin="round"/>
    <!-- Bottom-right -->
    <polygon points="45,31 52,35 52,43 45,47 38,43 38,35" fill="none" stroke="#AAFF00" stroke-width="2" stroke-linejoin="round"/>
    <!-- Bottom -->
    <polygon points="32,38 39,42 39,50 32,54 25,50 25,42" fill="none" stroke="#AAFF00" stroke-width="2" stroke-linejoin="round"/>
    <!-- Bottom-left -->
    <polygon points="19,31 26,35 26,43 19,47 12,43 12,35" fill="none" stroke="#AAFF00" stroke-width="2" stroke-linejoin="round"/>
    <!-- Top-left -->
    <polygon points="19,17 26,21 26,29 19,33 12,29 12,21" fill="none" stroke="#AAFF00" stroke-width="2" stroke-linejoin="round"/>
  </g>
</svg>